Description

Poster: http://cdn.piczend.com/image/qdnyli44fih0wcdu2bayfoft5.jpeg
Release date: 2012
Genre: Action, Comedy, Sci-Fi
Plot: Agent J travels in time to M.I.B.'s early days in 1969 to stop an alien from assassinating his friend Agent K and changing history.
--------------------------------
Runtime: 1 h 46 min
Rating: 6.9/10
Votes: 130,429
Writer(s)/Director(s): Etan Cohen, Lowell Cunningham/Barry Sonnenfeld
Actors: Will Smith, Tommy Lee Jones, Josh Brolin, Jemaine Clement
Trailer: http://www.imdb.com/video/imdb/vi3916407065/

Screenshots: 
http://cdn.piczend.com/image/cvo5lua3fwx3jshvb3wtz3yfz.jpeg 
http://cdn.piczend.com/image/ykhcydfjrauc0o8nb1wjyilse.jpeg 
http://cdn.piczend.com/image/vryjnn7yvawz56hwq9nv70wzn.jpeg 
http://cdn.piczend.com/image/6nvhgq2oocb2a0oamdwikspk5.jpeg

Mediainfo:
General
Complete name :	Men in Black 3 (2012) DVDRip 420p [Zend]/Men in Black 3 (2012) DVDRip 420p [Zend].mp4
Format :	MPEG-4
Format profile :	Base Media
Codec ID :	isom
File size :	1.20 GiB
Duration :	1h 45mn
Overall bit rate :	1 626 Kbps
Encoded date :	UTC 2013-02-05 08:14:38
Tagged date :	UTC 2013-02-05 08:14:38
Writing application :	Lavf53.21.1

Video
ID :	1
Format :	AVC
Format/Info :	Advanced Video Codec
Format profile :	Main@L3.1
Format settings, CABAC :	Yes
Format settings, ReFrames :	3 frames
Codec ID :	avc1
Codec ID/Info :	Advanced Video Coding
Duration :	1h 45mn
Bit rate :	1 500 Kbps
Width :	1 280 pixels
Height :	688 pixels
Display aspect ratio :	1.85:1
Frame rate mode :	Constant
Frame rate :	23.976 fps
Color space :	YUV
Chroma subsampling :	4:2:0
Bit depth :	8 bits
Scan type :	Progressive
Bits/(Pixel*Frame) :	0.071
Stream size :	1.10 GiB (92%)
Writing library :	x264 core 123 r2189 35cf912
Encoding settings :	cabac=1 / ref=3 / deblock=1:0:0 / analyse=0x1:0x111 / me=hex / subme=7 / psy=1 / psy_rd=1.00:0.00 / mixed_ref=0 / me_range=16 / chroma_me=1 / trellis=1 / 8x8dct=0 / cqm=0 / deadzone=21,11 / fast_pskip=1 / chroma_qp_offset=-2 / threads=6 / sliced_threads=0 / nr=0 / decimate=1 / interlaced=0 / bluray_compat=0 / constrained_intra=0 / bframes=3 / b_pyramid=0 / b_adapt=1 / b_bias=0 / direct=1 / weightb=0 / open_gop=1 / weightp=2 / keyint=250 / keyint_min=23 / scenecut=40 / intra_refresh=0 / rc_lookahead=40 / rc=abr / mbtree=1 / bitrate=1500 / ratetol=1.0 / qcomp=0.60 / qpmin=0 / qpmax=69 / qpstep=4 / ip_ratio=1.25 / aq=1:1.00
Encoded date :	UTC 2013-02-05 08:14:38
Tagged date :	UTC 2013-02-05 08:14:38

Audio
ID :	2
Format :	MPEG Audio
Format version :	Version 1
Format profile :	Layer 3
Mode :	Joint stereo
Mode extension :	MS Stereo
Codec ID :	6B
Duration :	1h 45mn
Bit rate mode :	Constant
Bit rate :	128 Kbps
Channel(s) :	2 channels
Sampling rate :	48.0 KHz
Compression mode :	Lossy
Delay relative to video :	42ms
Stream size :	96.9 MiB (8%)
Writing library :	LAME3.99.5
Encoded date :	UTC 2013-02-05 08:14:38
Tagged date :	UTC 2013-02-05 08:14:38
